<?xml version="1.0" encoding="utf-8"?>
<!-- Generator: Adobe Illustrator 22.1.0, SVG Export Plug-In . SVG Version: 6.00 Build 0)  -->
<svg version="1.1" id="Layer_1" xmlns="http://www.w3.org/2000/svg" xmlns:xlink="http://www.w3.org/1999/xlink" x="0px" y="0px"
	 width="412.1px" height="171px" viewBox="0 0 412.1 171" style="enable-background:new 0 0 412.1 171;" xml:space="preserve">
<style type="text/css">
	.st0{fill:#FFFFFF;}
</style>
<title>Logo-hor</title>
<g id="Layer_2_1_">
	<g id="Layer_1-2">
		<path id="Logo-hor" class="st0" d="M411.1,18c0,22.1-0.3,30-0.5,52.1s0.9,33.6,1.4,54.4c0.2,10.6,0,11.3-0.1,22v12.2
			c0,4.5,0.2,10.6-2.2,10.7s-10.6,0.3-13.5,0.2s-12.9-0.3-18-0.2c-10.3,0.3-13.1,0.2-23.3,0.3c-41.6,0.2-62-0.6-103.5-1
			c-43.7-0.3-72.2,0.6-115.8,1.7c-22.4,0.5-45,0.7-67.4-0.1c-9.9-0.3-19.9-0.5-29.7-0.1s-26.3,1.2-33.5,0.6
			c-2.8-0.3-4.3-0.6-4.6-2.7s-0.1-9.6,0-15c0.1-11.4,0.3-12.7,0.2-24.1c-0.3-21.7,0.1-35.4-0.4-57.1S0,35.5,0.7,13.9
			C0.8,10.1,0.6,3.8,1.4,2.6s13.4-0.8,17.5-0.7c11.3,0.1,22.6,0,33.9,0C94.9,2,137-1.1,179.1,0.4C200.7,1.2,207.3,0,229,0.2
			s34.2,1.6,55.7,0.4s30.9,1,52.4,0.5s36.1-0.5,58.1-0.7c3.4,0,7.8-0.4,12.5,0c2.1,0.3,2.2,0.8,2.9,2.8C410.8,3.6,410.8,14,411.1,18
			z M18.8,11c-3.8,0-9.1-0.7-8.9,1.3S9.4,23.8,9.7,28c0.6,10.1,1.3,13,1,23.2c-0.7,21.4,0.2,34.7,0,56.1s0.1,34.3-0.5,49.9
			c-0.1,3.7,1.1,2.8,5.4,2.8s9.5,0.4,14.2,0.1c10.8-0.7,21.7-0.2,32.6-0.1c18.4,0.2,36.7,0.6,55.1,0.3c20.4-0.4,40.8-1.1,61.2-1.7
			c42.7-1.3,68.4-0.1,109.9,0.1s53.5,0.4,94.8,0.1c4.3,0,14.6,0.8,16.9,0s0.9-1.7,1.1-5.2c0.4-10.5,0.1-11.1,0.1-21.6
			c0-22-1.3-35.9-1.2-57.8S401,38,401,11.6c0-2.4-2.6-1.3-7.2-1.3c-11.3-0.2-24.8,0.6-36.1,0.6c-20.7,0.1-29.4-0.8-50.1-0.7
			s-31.3,0.6-51.6,0c-41-1.1-67-0.4-107.9-0.9c-20.4-0.2-40.9,1-61.3,1.7c-18.3,0.6-36.6-0.4-54.9-0.2L18.8,11z M105.2,104.4
			c0,1.1,0.4,1.9,1.7,1.9l4.9,0.2h2.8c0.5,0,0.9-0.3,1.1-0.8c0.2-0.9,0.3-1.8,0.3-2.7V92.7c-0.2-6.9-0.2-13.9-0.3-20.8
			c-0.1-3.6-0.1-7.1,0.1-10.7s-0.4-3.4-1.8-3.1h-2.2c-1.1-0.1-2.2-0.2-3.3-0.1c-1,0-3.2-0.3-4.2,0s-3.1,4.1-3.9,5.4
			c-0.8,1.3-3,5.4-4.4,8c-2.5,5.1-5.1,9.9-7.6,15l-0.5,1c-0.3,0.4-0.7-0.5-0.8-0.9c-3.7-7.8-8-15.5-11.6-23.3
			c-0.5-1.3-1.2-2.5-2-3.6C72,58,72.1,58,69.8,57.9c-2.7,0.3-5.5,0.3-8.2,0.2c-1.1,0-1.6,0.6-1.6,1.4c-0.3,2.4-0.5,4.8-0.6,7.2
			c-0.1,2.8,0,5.7,0,8.6c-0.1,4.5-0.3,9-0.4,13.4c-0.1,1.6-0.1,3.2,0,4.8c0.1,3.2,0,7.2,0.2,10.4s-0.3,2.4,1.4,3s3.4,0.3,5.1,0.4
			c1.2,0,2.4-0.1,3.5-0.5c0.4-0.1,0.9-0.2,0.9-0.6s0.1-2.2,0.1-3.4s0.1-3.2,0.1-4.9c0-3.7,0.1-7.4,0.1-11.1s0-5.7,0-8.5
			c0-0.3,0-0.6,0.2-0.9c0.4,0,0.5,0.5,0.6,0.8c1.5,2.7,2.9,5.5,4.3,8.2s2.6,5,4,7.5s2.5,4.2,3.9,6.5c0.3,0.5,0.8,0.7,1.4,0.7
			c1.7,0.1,3.5,0.1,5.2-0.1c0.9-0.1,2.1,0.1,2.6-0.6c1-1.7,1.9-3.5,2.6-5.4c3-5.9,5.9-12.1,8.8-18c0.2-0.3,0.8-0.2,0.8,0.1
			c0.1,2,0.1,4,0.2,6C105.2,89.4,105.2,103.7,105.2,104.4z M176.8,108c1.4,0,2.7-0.2,4-0.6c3-0.8,6-2.1,7.5-5.2
			c0.6-1.2,1.1-2.4,1.5-3.7c0.6-2.1,1-4.4,1-6.6c0.5-5.5-2.5-8.5-6.7-11c-2-1.1-4.1-2-6.3-2.6l-10.4-3.8c-2.4-0.9-3.3-1.7-3-4.3
			s0.8-3.2,3.6-3.5l0.9-0.2c4.3-0.4,6,0.6,9,2.1l6.6,3.2c0.9,0.5,2,0.3,2.6-0.6l3.1-5.7c0.7-1,0.5-2.4-0.4-3.1
			c-0.1-0.1-0.2-0.2-0.4-0.2l-5.1-2.6c-1.5-0.7-3-1.4-4.5-1.9c-3.7-1.1-7.6-1.5-11.5-1.1c-4.8,0.6-8.1,1.3-11.8,4.6
			c-5.9,5.2-6.9,13.9-0.2,19.5c2.4,2,5.3,3.3,8,4.8c1,0.4,2,0.8,3,1.1l9,3.5c0.6,0.2,1.1,0.6,1.4,1.2c1,2.2,0,4.7-2.1,5.7
			c-0.3,0.1-0.6,0.2-1,0.3c-2.4,0.5-4.8,0.4-7.1-0.3c-4.3-1.2-8.4-2.9-12.3-5c-2.2-0.8-3.3-1.8-4.3,0.7c-0.4,1.9-1.1,3.7-1.8,5.5
			c-0.6,1.6-0.2,2.1,1.1,3.4s5.3,3.3,8.3,4.4s7,2.5,11.1,2.5C172,108.5,174.4,108.3,176.8,108L176.8,108z M238.6,68.5
			c0.1-0.5,0.8-0.5,1.2-0.5h10.3l11.7-0.2c1.5,0,1.4-1.1,1.4-2.4s-0.1-3.8-0.1-5.8s-0.3-1.6-1.3-1.6l-7.3-0.2h-25.2
			c-2,0-2.1,0.6-2.2,1.9c-0.2,4-0.2,7.9-0.2,11.9s0.2,6,0.2,9s-0.2,8.6-0.2,12.9s-0.1,7.6-0.1,11.3c0,2,0.1,2.2,2.1,2.3s5.5,0,8.4,0
			c0.7,0.1,1.3-0.5,1.4-1.2c0-0.1,0-0.2,0-0.3c0-1.8-0.1-3.5-0.1-5.3c-0.1-3.4,0.2-6.8,0.1-10.2c0-0.7,0.2-1,1-0.9h14
			c1.7,0.1,1.5-0.4,1.5-2.1s0-4.6-0.1-6.8c-0.1-0.5-0.5-0.9-1-1h-8.4c-2,0-3.9-0.1-5.9-0.3c-0.9-0.1-1.3-0.2-1.3-1.1
			S238.4,69.3,238.6,68.5L238.6,68.5z M301,119.8c0.1,0.2,0.3,0.4,0.6,0.4c4.1,0.1,8.1,0.3,12.2,0.3c6.1,0,24.8,0.1,28.1-0.2
			c1.2-0.1,1.6-0.5,1.6-2s0.3-4.6,0.3-6.9c0-0.7-0.5-1.3-1.1-1.6c-1.7-0.2-12.7-0.4-16.4-0.3h-24.5c-1.1,0-1,0.6-1.1,1.5
			S300.7,118.9,301,119.8z"/>
	</g>
</g>
</svg>
